<svg width="122" height="34" viewBox="0 0 122 34" fill="none" xmlns="http://www.w3.org/2000/svg">
<mask id="mask0_1968_1336" style="mask-type:luminance" maskUnits="userSpaceOnUse" x="0" y="0" width="122" height="32">
<path d="M121.688 0.671875H0.860352V31.6719H121.688V0.671875Z" fill="white"/>
</mask>
<g mask="url(#mask0_1968_1336)">
<path d="M53.0341 20.3084L51.7319 24.2665C51.7149 24.3306 51.676 24.387 51.6216 24.4262C51.5674 24.4654 51.501 24.485 51.4338 24.4818H48.2729C48.0838 24.4818 48.0279 24.3741 48.0571 24.2191L53.4868 8.77298C53.6677 8.24734 53.7577 7.69548 53.7531 7.14045C53.7509 7.09479 53.7664 7.05001 53.7965 7.01535C53.8269 6.98067 53.8695 6.95875 53.9156 6.9541H58.2587C58.3945 6.9541 58.4478 6.98034 58.4771 7.1142L64.6389 24.2402C64.6922 24.3741 64.6656 24.4818 64.5031 24.4818H60.9801C60.9154 24.4925 60.849 24.4796 60.7936 24.4452C60.7381 24.4107 60.6972 24.3573 60.6793 24.2953L59.2946 20.3084H53.0341ZM58.3013 16.962C57.7688 15.1956 56.6717 11.9594 56.1578 10.0591H56.1311C55.6943 11.8517 54.7171 14.7835 54.0008 16.962H58.3013Z" fill="white"/>
<path d="M65.0732 17.9509C65.0732 14.1241 67.9786 10.9141 72.9474 10.9141C73.1632 10.9141 73.4347 10.9404 73.8423 10.9666V5.69627C73.8392 5.67109 73.842 5.64557 73.8505 5.62161C73.8588 5.59768 73.8728 5.57591 73.891 5.55798C73.9091 5.54005 73.9311 5.52642 73.9554 5.51809C73.9799 5.50978 74.0056 5.50698 74.0312 5.50993H77.453C77.5889 5.50993 77.6155 5.56241 77.6155 5.67003V21.4836C77.6083 22.1363 77.6448 22.7886 77.7247 23.4364C77.7247 23.5703 77.6981 23.6254 77.5356 23.678C75.8438 24.3866 74.0242 24.7509 72.1858 24.7487C68.1675 24.7487 65.0732 22.5021 65.0732 17.9509ZM73.8423 14.153C73.5186 14.0486 73.1783 14.0033 72.8382 14.0191C70.7478 14.0191 68.9557 15.2763 68.9557 17.7645C68.9557 20.4128 70.503 21.565 72.5667 21.565C72.9979 21.5829 73.4292 21.5288 73.8423 21.4048V14.153Z" fill="white"/>
<path d="M93.1639 17.7645C93.1639 21.9639 90.3944 24.7487 86.4853 24.7487C81.8414 24.7487 79.7803 21.2974 79.7803 17.8458C79.7803 14.0453 82.358 10.9141 86.5386 10.9141C90.9112 10.9141 93.1639 14.1529 93.1639 17.7645ZM83.6068 17.7907C83.6068 20.1529 84.7199 21.6437 86.536 21.6437C88.1125 21.6437 89.3054 20.3078 89.3054 17.8458C89.3054 15.7461 88.4372 14.0191 86.3763 14.0191C84.8024 14.0191 83.6068 15.4101 83.6068 17.7907Z" fill="white"/>
<path d="M98.8706 5.50977C99.0862 5.50977 99.1369 5.53601 99.1369 5.72235V11.2079C99.8803 11.0118 100.647 10.9129 101.416 10.9139C105.411 10.9139 107.932 13.6961 107.932 17.2814C107.932 22.2867 103.914 24.7486 99.7893 24.7486C98.3453 24.7585 96.9086 24.5505 95.5287 24.1318C95.4807 24.1058 95.4405 24.0679 95.4121 24.0218C95.3837 23.9757 95.3677 23.9232 95.3662 23.8694V5.69611C95.3662 5.56225 95.4195 5.50977 95.5554 5.50977H98.8706ZM100.735 14.0714C100.194 14.0648 99.6556 14.1373 99.1369 14.2867V21.5517C99.4662 21.6255 99.803 21.6609 100.141 21.6568C102.204 21.6568 104.076 20.4258 104.076 17.6436C104.082 15.1948 102.644 14.0714 100.743 14.0714H100.735Z" fill="white"/>
<path d="M113.245 18.8093C113.381 20.3343 114.467 21.5915 117.127 21.5915C118.272 21.6132 119.408 21.4033 120.467 20.9747C120.549 20.9222 120.629 20.9484 120.629 21.1085V23.6519C120.629 23.8381 120.576 23.9143 120.44 23.972C119.354 24.4813 118.161 24.7595 116.286 24.7595C111.181 24.7595 109.392 21.3079 109.392 17.9904C109.392 14.2975 111.698 10.9248 115.961 10.9248C120.059 10.9248 121.689 14.056 121.689 16.6991C121.708 17.2997 121.663 17.9006 121.553 18.4917C121.549 18.5476 121.525 18.6002 121.485 18.6398C121.445 18.6794 121.391 18.7033 121.335 18.707C120.405 18.7935 119.472 18.8294 118.539 18.8146L113.245 18.8093ZM116.776 16.2135C117.228 16.2299 117.682 16.2114 118.131 16.1584V15.9721C118.123 15.6831 118.057 15.3985 117.937 15.135C117.816 14.8716 117.643 14.6344 117.428 14.4375C117.214 14.2405 116.962 14.0877 116.686 13.988C116.411 13.8882 116.118 13.8436 115.825 13.8566C114.116 13.8566 113.381 15.1164 113.218 16.2188L116.776 16.2135Z" fill="white"/>
<path d="M23.2637 -0.361328H36.3996V30.6387L23.2637 -0.361328Z" fill="white"/>
<path d="M14.007 -0.361328H0.860352V30.6387L14.007 -0.361328Z" fill="white"/>
<path d="M18.6354 11.0635L27.0048 30.6383H21.5193L19.0162 24.4047H12.8916L18.6354 11.0635Z" fill="white"/>
</g>
</svg>
