<svg width="132" height="300" viewBox="0 0 132 300" fill="none" xmlns="http://www.w3.org/2000/svg">
<g clip-path="url(#clip0_2662_2167)">
<g clip-path="url(#clip1_2662_2167)">
<circle cx="6" cy="294" r="6" transform="rotate(-90 6 294)" fill="#2C282C"/>
<circle cx="6" cy="270" r="6" transform="rotate(-90 6 270)" fill="#2C282C"/>
<circle cx="6" cy="246" r="6" transform="rotate(-90 6 246)" fill="#2C282C"/>
<circle cx="6" cy="222" r="6" transform="rotate(-90 6 222)" fill="#2C282C"/>
<circle cx="6" cy="198" r="6" transform="rotate(-90 6 198)" fill="#2C282C"/>
<circle cx="6" cy="174" r="6" transform="rotate(-90 6 174)" fill="#2C282C"/>
<circle cx="6" cy="150" r="6" transform="rotate(-90 6 150)" fill="#2C282C"/>
<circle cx="6" cy="126" r="6" transform="rotate(-90 6 126)" fill="#2C282C"/>
<circle cx="6" cy="102" r="6" transform="rotate(-90 6 102)" fill="#2C282C"/>
<circle cx="6" cy="78" r="6" transform="rotate(-90 6 78)" fill="#2C282C"/>
<circle cx="6" cy="54" r="6" transform="rotate(-90 6 54)" fill="#2C282C"/>
<circle cx="6" cy="30" r="6" transform="rotate(-90 6 30)" fill="#2C282C"/>
<circle cx="6" cy="6" r="6" transform="rotate(-90 6 6)" fill="#2C282C"/>
</g>
<g clip-path="url(#clip2_2662_2167)">
<circle cx="30" cy="294" r="6" transform="rotate(-90 30 294)" fill="#2C282C"/>
<circle cx="30" cy="270" r="6" transform="rotate(-90 30 270)" fill="#2C282C"/>
<circle cx="30" cy="246" r="6" transform="rotate(-90 30 246)" fill="#2C282C"/>
<circle cx="30" cy="222" r="6" transform="rotate(-90 30 222)" fill="#2C282C"/>
<circle cx="30" cy="198" r="6" transform="rotate(-90 30 198)" fill="#2C282C"/>
<circle cx="30" cy="174" r="6" transform="rotate(-90 30 174)" fill="#2C282C"/>
<circle cx="30" cy="150" r="6" transform="rotate(-90 30 150)" fill="#2C282C"/>
<circle cx="30" cy="126" r="6" transform="rotate(-90 30 126)" fill="#2C282C"/>
<circle cx="30" cy="102" r="6" transform="rotate(-90 30 102)" fill="#2C282C"/>
<circle cx="30" cy="78" r="6" transform="rotate(-90 30 78)" fill="#2C282C"/>
<circle cx="30" cy="54" r="6" transform="rotate(-90 30 54)" fill="#2C282C"/>
<circle cx="30" cy="30" r="6" transform="rotate(-90 30 30)" fill="#2C282C"/>
<circle cx="30" cy="6" r="6" transform="rotate(-90 30 6)" fill="#2C282C"/>
</g>
<g clip-path="url(#clip3_2662_2167)">
<circle cx="54" cy="294" r="6" transform="rotate(-90 54 294)" fill="#2C282C"/>
<circle cx="54" cy="270" r="6" transform="rotate(-90 54 270)" fill="#2C282C"/>
<circle cx="54" cy="246" r="6" transform="rotate(-90 54 246)" fill="#2C282C"/>
<circle cx="54" cy="222" r="6" transform="rotate(-90 54 222)" fill="#2C282C"/>
<circle cx="54" cy="198" r="6" transform="rotate(-90 54 198)" fill="#2C282C"/>
<circle cx="54" cy="174" r="6" transform="rotate(-90 54 174)" fill="#2C282C"/>
<circle cx="54" cy="150" r="6" transform="rotate(-90 54 150)" fill="#2C282C"/>
<circle cx="54" cy="126" r="6" transform="rotate(-90 54 126)" fill="#2C282C"/>
<circle cx="54" cy="102" r="6" transform="rotate(-90 54 102)" fill="#2C282C"/>
<circle cx="54" cy="78" r="6" transform="rotate(-90 54 78)" fill="#2C282C"/>
<circle cx="54" cy="54" r="6" transform="rotate(-90 54 54)" fill="#2C282C"/>
<circle cx="54" cy="30" r="6" transform="rotate(-90 54 30)" fill="#2C282C"/>
<circle cx="54" cy="6" r="6" transform="rotate(-90 54 6)" fill="#2C282C"/>
</g>
<g clip-path="url(#clip4_2662_2167)">
<circle cx="78" cy="294" r="6" transform="rotate(-90 78 294)" fill="#2C282C"/>
<circle cx="78" cy="270" r="6" transform="rotate(-90 78 270)" fill="#2C282C"/>
<circle cx="78" cy="246" r="6" transform="rotate(-90 78 246)" fill="#2C282C"/>
<circle cx="78" cy="222" r="6" transform="rotate(-90 78 222)" fill="#2C282C"/>
<circle cx="78" cy="198" r="6" transform="rotate(-90 78 198)" fill="#2C282C"/>
<circle cx="78" cy="174" r="6" transform="rotate(-90 78 174)" fill="#2C282C"/>
<circle cx="78" cy="150" r="6" transform="rotate(-90 78 150)" fill="#2C282C"/>
<circle cx="78" cy="126" r="6" transform="rotate(-90 78 126)" fill="#2C282C"/>
<circle cx="78" cy="102" r="6" transform="rotate(-90 78 102)" fill="#2C282C"/>
<circle cx="78" cy="78" r="6" transform="rotate(-90 78 78)" fill="#2C282C"/>
<circle cx="78" cy="54" r="6" transform="rotate(-90 78 54)" fill="#2C282C"/>
<circle cx="78" cy="30" r="6" transform="rotate(-90 78 30)" fill="#2C282C"/>
<circle cx="78" cy="6" r="6" transform="rotate(-90 78 6)" fill="#2C282C"/>
</g>
<g clip-path="url(#clip5_2662_2167)">
<circle cx="102" cy="294" r="6" transform="rotate(-90 102 294)" fill="#2C282C"/>
<circle cx="102" cy="270" r="6" transform="rotate(-90 102 270)" fill="#2C282C"/>
<circle cx="102" cy="246" r="6" transform="rotate(-90 102 246)" fill="#2C282C"/>
<circle cx="102" cy="222" r="6" transform="rotate(-90 102 222)" fill="#2C282C"/>
<circle cx="102" cy="198" r="6" transform="rotate(-90 102 198)" fill="#2C282C"/>
<circle cx="102" cy="174" r="6" transform="rotate(-90 102 174)" fill="#2C282C"/>
<circle cx="102" cy="150" r="6" transform="rotate(-90 102 150)" fill="#2C282C"/>
<circle cx="102" cy="126" r="6" transform="rotate(-90 102 126)" fill="#2C282C"/>
<circle cx="102" cy="102" r="6" transform="rotate(-90 102 102)" fill="#2C282C"/>
<circle cx="102" cy="78" r="6" transform="rotate(-90 102 78)" fill="#2C282C"/>
<circle cx="102" cy="54" r="6" transform="rotate(-90 102 54)" fill="#2C282C"/>
<circle cx="102" cy="30" r="6" transform="rotate(-90 102 30)" fill="#2C282C"/>
<circle cx="102" cy="6" r="6" transform="rotate(-90 102 6)" fill="#2C282C"/>
</g>
<g clip-path="url(#clip6_2662_2167)">
<circle cx="126" cy="294" r="6" transform="rotate(-90 126 294)" fill="#2C282C"/>
<circle cx="126" cy="270" r="6" transform="rotate(-90 126 270)" fill="#2C282C"/>
<circle cx="126" cy="246" r="6" transform="rotate(-90 126 246)" fill="#2C282C"/>
<circle cx="126" cy="222" r="6" transform="rotate(-90 126 222)" fill="#2C282C"/>
<circle cx="126" cy="198" r="6" transform="rotate(-90 126 198)" fill="#2C282C"/>
<circle cx="126" cy="174" r="6" transform="rotate(-90 126 174)" fill="#2C282C"/>
<circle cx="126" cy="150" r="6" transform="rotate(-90 126 150)" fill="#2C282C"/>
<circle cx="126" cy="126" r="6" transform="rotate(-90 126 126)" fill="#2C282C"/>
<circle cx="126" cy="102" r="6" transform="rotate(-90 126 102)" fill="#2C282C"/>
<circle cx="126" cy="78" r="6" transform="rotate(-90 126 78)" fill="#2C282C"/>
<circle cx="126" cy="54" r="6" transform="rotate(-90 126 54)" fill="#2C282C"/>
<circle cx="126" cy="30" r="6" transform="rotate(-90 126 30)" fill="#2C282C"/>
<circle cx="126" cy="6" r="6" transform="rotate(-90 126 6)" fill="#2C282C"/>
</g>
</g>
<defs>
<clipPath id="clip0_2662_2167">
<rect width="300" height="132" fill="white" transform="translate(0 300) rotate(-90)"/>
</clipPath>
<clipPath id="clip1_2662_2167">
<rect width="300" height="24" fill="white" transform="translate(0 300) rotate(-90)"/>
</clipPath>
<clipPath id="clip2_2662_2167">
<rect width="300" height="24" fill="white" transform="translate(24 300) rotate(-90)"/>
</clipPath>
<clipPath id="clip3_2662_2167">
<rect width="300" height="24" fill="white" transform="translate(48 300) rotate(-90)"/>
</clipPath>
<clipPath id="clip4_2662_2167">
<rect width="300" height="24" fill="white" transform="translate(72 300) rotate(-90)"/>
</clipPath>
<clipPath id="clip5_2662_2167">
<rect width="300" height="24" fill="white" transform="translate(96 300) rotate(-90)"/>
</clipPath>
<clipPath id="clip6_2662_2167">
<rect width="300" height="24" fill="white" transform="translate(120 300) rotate(-90)"/>
</clipPath>
</defs>
</svg>
