<svg width="128" height="32" viewBox="0 0 128 32" fill="none" xmlns="http://www.w3.org/2000/svg">
<g id="Dribbble">
<path id="Vector" fill-rule="evenodd" clip-rule="evenodd" d="M127.353 24.9745C122.05 33.9656 113.652 31.3566 111.129 29.3139C110.056 30.0424 108.173 31.6389 105.663 31.4544C100.318 31.0621 98.4035 23.423 98.4035 23.423C98.4418 23.4536 96.811 23.9857 95.9297 23.9763C95.9183 26.2164 93.9819 31.5678 88.7558 31.4994C82.8912 31.4229 81.699 22.6857 81.699 22.6857C81.699 22.6857 81.1154 23.4962 78.8963 24.3033C79.008 22.5823 78.9264 31.2374 71.8974 31.3646C66.3406 31.4653 64.8408 22.5509 64.8408 22.5509C64.8408 22.5509 63.8768 23.5524 62.0086 23.8996C62.1272 22.1505 61.9343 31.3941 54.9044 31.3646C50.1539 31.3448 48.5305 25.8735 48.6566 25.114C48.8179 24.1461 47.0513 31.5006 42.4366 31.3861C40.5325 31.3301 39.1127 29.9515 38.2219 28.1133C37.0293 29.4779 35.298 31.3861 33.3556 31.3861C29.8691 31.3861 28.3321 28.47 28.5923 20.141C28.6145 19.1531 28.5432 18.7646 27.5611 18.6168C26.9717 18.5184 26.3681 18.3322 25.7293 18.234C25.5246 18.9172 23.7884 31.164 17.818 31.3962C15.8151 31.4744 14.7199 29.7392 13.8204 28.4515C12.4417 30.2753 10.6217 31.4544 8.02888 31.4544C3.63691 31.4544 0.644531 27.904 0.644531 23.5242C0.644531 19.1443 3.63691 15.5941 8.02888 15.5941C8.80543 15.5941 9.02342 15.7054 9.73285 15.9124C8.27389 2.62907 11.7193 0.553078 14.7334 0.553078C17.627 0.553078 22.5706 7.26915 15.6146 24.3046C17.1589 29.386 20.4882 29.0986 22.0881 18.6385C22.4136 16.5123 21.543 13.6431 22.8971 13.2426C25.3728 12.5108 25.6355 14.7065 26.796 15.0724C28.0233 15.4591 28.7398 15.4213 29.918 15.6673C31.9313 16.0605 32.7168 17.142 32.4716 19.5509C32.1771 22.5987 31.6618 27.0349 33.2328 27.5757C34.3659 27.9684 36.4345 25.6188 36.7974 24.3332C37.1602 23.0475 37.2362 22.6075 37.2682 21.6647C37.3173 19.6494 37.3791 18.1721 37.7227 16.648C37.8697 16.0582 38.0374 15.6677 38.7046 15.641C39.2537 15.627 40.2578 15.4617 40.6998 15.8057C41.2888 16.2483 41.2151 16.6974 41.1475 17.8795C40.4625 34.7337 45.7358 26.32 47.3079 19.5831C46.7482 11.9653 47.1325 0.692572 51.9063 0.503508C54.3888 0.405185 55.4863 2.39408 55.6071 3.87861C55.9485 8.07147 54.0358 15.0169 51.5203 19.6876C50.0826 29.2181 57.8064 31.1024 59.0414 23.4953C57.0206 22.5345 54.8366 18.6455 56.6139 16.7503C57.6111 15.6866 61.7621 17.2146 61.8301 20.5472C63.8662 20.0027 64.1381 18.8531 64.1663 19.0436C63.6066 11.4258 64.1256 0.692671 68.8996 0.503606C71.382 0.405282 72.4795 2.39418 72.6 3.87872C72.9417 8.07156 71.0289 15.017 68.5136 19.6878C67.0758 29.2181 74.7995 31.1026 76.0344 23.4955C74.5382 23.2066 71.3801 19.0703 73.2022 16.7504C74.1761 15.5107 78.3118 18.0888 78.7749 20.6576C80.7309 20.1041 80.9965 18.991 81.0247 19.1783C80.4648 11.5608 80.9838 0.827674 85.7578 0.63861C88.2402 0.540286 89.3377 2.52919 89.4584 4.01372C89.7999 8.20656 87.8871 15.1521 85.3714 19.8229C83.934 29.3532 91.6577 31.2374 92.8928 23.6303C90.8369 23.2878 87.9147 18.9203 90.2666 16.686C91.2061 15.7933 94.7965 18.1106 95.6369 20.7545C96.8046 20.7095 97.5314 20.3068 97.6872 20.2662C95.8229 11.3234 97.2108 0.593306 102.346 0.503737C105.122 0.455372 107.836 2.00434 106.645 10.5122C105.508 18.6298 101.421 22.0364 101.43 22.0885C101.668 23.0609 103.765 31.1997 109.046 26.9053C108.773 26.2864 108.499 25.6539 108.346 24.888C107.471 20.4253 109.19 15.3848 113.863 14.5702C116.54 14.1034 119.062 15.407 119.461 18.3456C120.117 23.1541 115.775 26.6364 114.124 27.3919C113.385 26.9718 120.828 31.7454 125.245 22.1789C125.501 21.6328 125.81 21.679 126.21 21.9606C126.492 22.1595 128.102 23.6839 127.353 24.9745ZM11.2236 22.3425C10.9989 21.6707 10.5376 20.1901 10.3745 19.5485C9.47624 18.7674 8.83505 18.6405 7.68203 18.6405C5.11962 18.6405 3.61142 21.0096 3.61142 23.5642C3.61142 26.1187 5.25449 28.4883 7.81692 28.4883C10.0376 28.4883 11.7276 26.9783 12.2433 24.841C11.8824 24.0077 11.5243 23.2419 11.2236 22.3425ZM14.6706 4.06926C12.8701 4.06926 12.2593 8.36436 12.3779 12.0285C12.4827 15.268 13.3879 18.12 13.8575 19.3979C13.9767 19.558 13.9546 19.4539 14.061 19.6237C17.1872 12.774 15.8906 4.06926 14.6706 4.06926ZM52.1633 4.2042C49.8364 3.9373 49.8512 13.6312 50.1401 15.8057C51.3489 13.8722 53.4483 4.72476 52.1633 4.2042ZM69.1562 4.2042C66.8293 3.9373 66.8444 13.6312 67.1333 15.8057C68.3419 13.8722 70.4415 4.72476 69.1562 4.2042ZM86.0147 4.33905C83.6875 4.07217 83.7026 13.7661 83.9915 15.9407C85.2 14.0071 87.2996 4.85961 86.0147 4.33905ZM102.603 3.63673C98.9774 4.3648 99.8217 16.4534 100.372 18.5735C104.643 12.7077 104.731 3.41639 102.603 3.63673ZM116.191 18.7433C116.007 17.9725 115.085 17.5606 114.449 17.6621C112.629 17.9108 110.863 20.178 111.546 23.6299C111.698 24.3986 112.079 25.1063 112.073 25.0828C116.147 22.3494 116.493 20.1956 116.191 18.7433ZM39.4184 12.9728C38.8981 12.9729 38.3894 12.8187 37.9567 12.5297C37.5242 12.2407 37.1869 11.8299 36.9875 11.3492C36.7884 10.8685 36.7363 10.3395 36.8379 9.82924C36.9393 9.3189 37.1899 8.85013 37.5578 8.4822C37.9255 8.11425 38.3943 7.86368 38.9046 7.76216C39.4148 7.66063 39.9439 7.71271 40.4246 7.91184C40.9053 8.11095 41.3161 8.44814 41.6052 8.88078C41.8941 9.31341 42.0485 9.82204 42.0485 10.3423C42.0485 10.6878 41.9804 11.0298 41.8483 11.3489C41.7161 11.6681 41.5225 11.958 41.2782 12.2023C41.0339 12.4465 40.7441 12.6403 40.4248 12.7725C40.1058 12.9047 39.7637 12.9728 39.4184 12.9728Z" fill="white"/>
</g>
</svg>
