<svg width="94" height="70" viewBox="0 0 94 70" fill="none" xmlns="http://www.w3.org/2000/svg">
<g id="Middlesex_University_London">
<g id="Layer_2">
<g id="Layer_1-2">
<path id="Vector" d="M34.8889 20.5297L21.7766 19.4912L8.89835 20.4832C8.89835 20.4832 8.80469 23.397 8.80469 26.9928C8.80469 45.4525 21.8546 50.3657 21.8546 50.3657C21.8546 50.3657 34.9826 45.499 34.9826 27.0393C34.967 23.4435 34.8733 20.5297 34.8889 20.5297Z" fill="#E52528"/>
<path id="Vector_2" d="M44.1776 28.3104C44.1776 28.1244 43.7093 23.2112 43.7093 23.2112C43.6624 22.7307 43.678 22.2812 43.678 22.2812H43.6624C43.6624 22.2812 43.5844 22.7152 43.4439 23.2112C43.4439 23.2112 42.1014 28.0624 42.0234 28.3104H41.2273C41.1492 28.0779 39.8224 23.1957 39.8224 23.1957C39.6975 22.7152 39.6038 22.2812 39.6038 22.2812H39.5882C39.5882 22.2812 39.5882 22.7152 39.557 23.1957C39.557 23.1957 39.0887 28.0779 39.0887 28.3104H37.918L38.7609 20.5918H40.1502L41.4927 25.5361C41.6175 26.032 41.68 26.404 41.68 26.404H41.7112C41.758 26.1095 41.8205 25.8305 41.8985 25.5361L43.2722 20.5918H44.6615L45.5044 28.3104H44.1776Z" fill="white"/>
<path id="Vector_3" d="M46.7372 22.2663H48.0641V28.311H46.7372V22.2663ZM47.4085 21.2123C47.0182 21.2278 46.6904 20.9178 46.6748 20.5458C46.6904 20.1429 47.0494 19.8484 47.4397 19.8639C47.8143 19.8794 48.1109 20.1739 48.1265 20.5458C48.1265 20.9333 47.7987 21.2278 47.4085 21.2123Z" fill="white"/>
<path id="Vector_4" d="M52.7467 23.056C52.5594 23.0095 52.3564 22.9785 52.1535 22.994C50.9984 22.994 50.6081 24.017 50.6081 25.2879C50.6081 26.6519 51.0296 27.5508 52.0598 27.5508C52.294 27.5663 52.5281 27.5198 52.7467 27.4113V23.056ZM52.0286 28.4033C50.2959 28.4033 49.2969 27.2563 49.2969 25.3344C49.2969 23.366 50.3427 22.1881 51.8569 22.1881C52.1535 22.1881 52.4501 22.2191 52.7311 22.2966V19.4912H54.0579V27.9693C53.6052 28.2483 52.9496 28.4188 52.0286 28.4033Z" fill="white"/>
<path id="Vector_5" d="M58.7096 23.056C58.5222 23.0095 58.3193 22.9785 58.1164 22.994C56.9613 22.994 56.571 24.017 56.571 25.2879C56.571 26.6519 56.9925 27.5508 58.0071 27.5508C58.2413 27.5663 58.4754 27.5198 58.694 27.4113V23.056H58.7096ZM57.9915 28.4033C56.2588 28.4033 55.2598 27.2563 55.2598 25.3344C55.2598 23.366 56.3056 22.1881 57.8198 22.1881C58.1164 22.1881 58.413 22.2191 58.694 22.2966V19.4912H60.0208V27.9693C59.5681 28.2483 58.9125 28.4188 57.9915 28.4033Z" fill="white"/>
<path id="Vector_6" d="M62.8933 19.4912H61.5664V28.2948H62.8933V19.4912Z" fill="white"/>
<path id="Vector_7" d="M66.608 22.9942C65.8431 22.9942 65.3123 23.6452 65.3436 25.0866L67.7631 24.7146C67.7475 23.4747 67.326 22.9787 66.608 22.9942ZM65.406 25.7841C65.5153 26.9 66.0304 27.4735 66.9982 27.4735C67.5134 27.489 68.0129 27.365 68.4812 27.1325L68.7934 28.0004C68.2002 28.3104 67.529 28.4499 66.8577 28.4189C65.2031 28.4189 64.1416 27.303 64.1416 25.2726C64.1416 23.3042 65.1094 22.1572 66.6392 22.1572C68.169 22.1572 69.0431 23.2267 68.9807 25.2571L65.406 25.7841Z" fill="white"/>
<path id="Vector_8" d="M71.432 28.4037C70.8545 28.4192 70.2925 28.2642 69.8086 27.9698L70.1676 27.1018C70.4798 27.3343 70.8701 27.4583 71.2603 27.4583C71.7286 27.4893 72.1189 27.1483 72.1657 26.6833C72.1657 26.6523 72.1657 26.6368 72.1657 26.6058C72.1657 26.0943 71.9003 25.8464 71.3072 25.6139C70.2145 25.1799 69.9803 24.5444 69.9803 23.9245C69.9803 22.9635 70.714 22.173 71.8379 22.173C72.3842 22.1575 72.915 22.297 73.3521 22.5915L73.0242 23.382C72.7589 23.165 72.4311 23.041 72.0876 23.041C71.6506 23.01 71.2915 23.3355 71.2603 23.754C71.2603 23.785 71.2603 23.8005 71.2603 23.8315C71.2603 24.3274 71.6193 24.5754 72.1345 24.7924C73.274 25.2574 73.5394 25.8774 73.5394 26.5748C73.5082 27.5513 72.712 28.4037 71.432 28.4037Z" fill="white"/>
<path id="Vector_9" d="M76.9107 22.9942C76.1302 22.9942 75.5995 23.6452 75.6307 25.0866L78.0503 24.7146C78.0659 23.4747 77.6444 22.9787 76.9107 22.9942ZM75.7244 25.7841C75.8336 26.9 76.3488 27.4735 77.3166 27.4735C77.8317 27.489 78.3312 27.365 78.7995 27.1325L79.1117 28.0004C78.5186 28.3104 77.8473 28.4499 77.1761 28.4189C75.5214 28.4189 74.46 27.303 74.46 25.2726C74.46 23.3042 75.4278 22.1572 76.9576 22.1572C78.4873 22.1572 79.3615 23.2267 79.299 25.2571L75.7244 25.7841Z" fill="white"/>
<path id="Vector_10" d="M83.4047 22.2656L82.3745 24.234H82.3589L81.3598 22.2656H79.9705L81.6096 25.1795L79.7988 28.3103H81.1413L82.2496 26.1094H82.2808L83.3735 28.3103H84.8252L82.9989 25.0865L84.6535 22.2656H83.4047Z" fill="white"/>
<path id="Vector_11" d="M40.649 39.284C39.1817 39.284 38.1826 38.3231 38.1826 36.9126V31.4414H39.5563V36.9126C39.5563 37.7496 40.0714 38.1836 40.6958 38.1836C41.3202 38.1836 41.8353 37.7341 41.8353 36.9126V31.4414H43.1154V36.9126C43.1154 38.3076 42.1163 39.2685 40.649 39.284Z" fill="white"/>
<path id="Vector_12" d="M47.8767 39.1444V34.8511C47.8767 34.3551 47.6582 33.8437 46.8152 33.8437C46.503 33.8282 46.1908 33.8902 45.9099 34.0141V39.1289H44.583V33.4252C45.3011 33.1152 46.0816 32.9602 46.8777 32.9912C48.626 32.9912 49.2036 33.8592 49.2036 34.8356V39.1444H47.8767Z" fill="white"/>
<path id="Vector_13" d="M50.6699 33.0991H51.9968V39.1438H50.6699V33.0991ZM51.3255 32.0606C50.9509 32.0451 50.6543 31.7197 50.6855 31.3477C50.7011 30.9757 51.029 30.6812 51.4036 30.7122C51.7626 30.7277 52.0436 31.0377 52.0436 31.3942C52.0436 31.7817 51.7158 32.0761 51.3255 32.0606Z" fill="white"/>
<path id="Vector_14" d="M56.1346 39.1443H54.8702L52.9502 33.0996H54.3551L55.3854 37.0054C55.4634 37.2689 55.5102 37.5479 55.5258 37.8269H55.5571C55.5883 37.5479 55.6351 37.2689 55.7132 37.0054L56.7746 33.0996H58.0078L56.1346 39.1443Z" fill="white"/>
<path id="Vector_15" d="M61.0357 33.8283C60.2552 33.8283 59.7245 34.4793 59.7713 35.9207L62.1909 35.5487C62.1909 34.3398 61.7694 33.8438 61.0357 33.8283ZM59.8494 36.6337C59.9586 37.7496 60.4738 38.3231 61.4416 38.3231C61.9567 38.3386 62.4562 38.2146 62.9245 37.9821L63.2367 38.8501C62.6435 39.16 61.9723 39.2995 61.3011 39.2685C59.6308 39.2685 58.585 38.1526 58.585 36.1222C58.585 34.1538 59.5528 33.0068 61.0826 33.0068C62.6123 33.0068 63.4865 34.0763 63.424 36.1067L59.8494 36.6337Z" fill="white"/>
<path id="Vector_16" d="M67.2016 33.9991C66.7958 33.8441 66.3587 33.8596 65.9684 34.0456V39.1449H64.6416V33.4256C65.2504 33.1156 65.9841 32.9606 67.467 33.0071L67.2016 33.9991Z" fill="white"/>
<path id="Vector_17" d="M69.5902 39.2532C69.0127 39.2687 68.4507 39.1137 67.9668 38.8192L68.3258 37.9513C68.638 38.1838 69.0283 38.3078 69.4185 38.2923C69.8868 38.3233 70.2927 37.9823 70.3239 37.5173C70.3239 37.4863 70.3239 37.4708 70.3239 37.4398C70.3239 36.9283 70.0585 36.6803 69.4653 36.4479C68.357 36.0139 68.1229 35.3784 68.1229 34.7584C68.1229 33.7975 68.8566 33.007 69.9805 33.007C70.5268 32.9915 71.0576 33.131 71.4946 33.4255L71.1668 34.216C70.9015 33.999 70.5737 33.875 70.2302 33.875C69.7932 33.844 69.4341 34.1695 69.4029 34.5879C69.4029 34.6189 69.4029 34.6344 69.4029 34.6654C69.4029 35.1614 69.7619 35.4094 70.2771 35.6264C71.4166 36.0914 71.682 36.7113 71.682 37.4088C71.682 38.4008 70.8859 39.2532 69.5902 39.2532Z" fill="white"/>
<path id="Vector_18" d="M72.8838 33.0991H74.2106V39.1438H72.8838V33.0991ZM73.5394 32.0606C73.1648 32.0451 72.8682 31.7197 72.8994 31.3477C72.915 30.9757 73.2428 30.6812 73.6175 30.7122C73.9765 30.7277 74.2575 31.0377 74.2575 31.3942C74.2575 31.7817 73.9297 32.0761 73.5394 32.0606Z" fill="white"/>
<path id="Vector_19" d="M77.6131 39.2217C76.4579 39.2217 76.0052 38.4312 76.0052 37.5942V33.9829H75.3496V33.1149H76.0052V31.782L77.3321 31.3945V33.1149H78.2843V33.9829H77.3321V37.5167C77.3321 37.9817 77.5194 38.3072 77.9721 38.3072C78.0814 38.3072 78.1906 38.2917 78.2843 38.2452V39.0977C78.0657 39.1752 77.8472 39.2217 77.6131 39.2217Z" fill="white"/>
<path id="Vector_20" d="M81.2975 41.5622H79.8926L80.8448 39.1443L78.9092 33.0996H80.3141L81.3287 37.0209C81.4068 37.2999 81.438 37.5944 81.4536 37.8889H81.4848C81.516 37.5944 81.5629 37.3154 81.6409 37.0209L82.7336 33.0996H83.9668L81.2975 41.5622Z" fill="white"/>
<path id="Vector_21" d="M38.2764 42.6475V50.3661H41.5232V49.6686H39.2754V42.6475H38.2764Z" fill="white"/>
<path id="Vector_22" d="M44.5984 44.8329C43.4745 44.8329 43.2559 46.1193 43.2559 47.3437C43.2559 48.5682 43.4901 49.7926 44.5984 49.7926C45.7067 49.7926 45.9252 48.5527 45.9252 47.3437C45.9252 46.1348 45.7223 44.8329 44.5984 44.8329ZM44.5984 50.4901C43.0062 50.4901 42.3037 49.1262 42.3037 47.3592C42.3037 45.5923 43.0062 44.2129 44.5828 44.2129C46.1594 44.2129 46.8774 45.5458 46.8774 47.3592C46.8774 49.1572 46.175 50.4901 44.5984 50.4901Z" fill="white"/>
<path id="Vector_23" d="M51.4832 50.3654V46.0256C51.4832 45.4677 51.249 44.8477 50.25 44.8477C49.8753 44.8322 49.4851 44.9097 49.1417 45.0647V50.3654H48.1895V44.6307C48.8607 44.3207 49.5944 44.1812 50.328 44.2122C51.9671 44.2122 52.4354 45.1422 52.4354 46.0101V50.3809L51.4832 50.3654Z" fill="white"/>
<path id="Vector_24" d="M57.2271 44.957C56.993 44.8795 56.7432 44.8485 56.4935 44.8485C55.1354 44.8485 54.6983 46.0574 54.6983 47.3749C54.6983 48.8008 55.1666 49.8392 56.3686 49.8392C56.6652 49.8702 56.9461 49.8082 57.2115 49.6687V44.957H57.2271ZM56.3374 50.4902C54.6671 50.4902 53.7617 49.2813 53.7617 47.4523C53.7617 45.4374 54.792 44.275 56.3061 44.275C56.6183 44.275 56.9305 44.3215 57.2271 44.4145V41.5781H58.1637V50.0717C57.6018 50.3662 56.9618 50.5057 56.3374 50.4902Z" fill="white"/>
<path id="Vector_25" d="M61.7839 44.8329C60.66 44.8329 60.4415 46.1193 60.4415 47.3437C60.4415 48.5682 60.6756 49.7926 61.7839 49.7926C62.8922 49.7926 63.1108 48.5527 63.1108 47.3437C63.1108 46.1348 62.8922 44.8329 61.7839 44.8329ZM61.7839 50.4901C60.1917 50.4901 59.4893 49.1262 59.4893 47.3592C59.4893 45.5923 60.1917 44.2129 61.7683 44.2129C63.3449 44.2129 64.063 45.5458 64.063 47.3592C64.063 49.1572 63.3605 50.4901 61.7839 50.4901Z" fill="white"/>
<path id="Vector_26" d="M68.6697 50.3654V46.0256C68.6697 45.4677 68.4355 44.8477 67.4365 44.8477C67.0619 44.8322 66.6716 44.9097 66.3282 45.0647V50.3654H65.376V44.6307C66.0472 44.3207 66.7809 44.1812 67.5145 44.2122C69.1536 44.2122 69.6219 45.1422 69.6219 46.0101V50.3809L68.6697 50.3654Z" fill="white"/>
<path id="Vector_27" d="M22.3071 31.2858C19.7627 31.2858 17.4368 32.1383 16.5002 32.5413C16.4066 32.3243 16.4066 32.0763 16.4846 31.8438C16.7188 31.8128 16.8905 31.6113 16.8593 31.3788C16.8437 31.1618 16.6563 31.0068 16.4534 31.0068C16.4378 31.0068 16.4066 31.0068 16.391 31.0068L16.3285 31.0223L16.2661 31.0533L16.2349 31.0688L16.188 31.0998L16.1412 31.1308C16.0007 31.2703 15.5792 31.7508 15.829 32.6653C15.6729 32.7428 15.5636 32.8822 15.5324 33.0372C15.4075 32.9597 15.2514 32.9442 15.1109 33.0062C14.9548 33.0837 14.83 33.2232 14.7988 33.3937C14.6739 33.3162 14.5178 33.3007 14.3773 33.3472C14.2212 33.4247 14.0963 33.5642 14.0651 33.7502C13.9402 33.6727 13.7841 33.6417 13.6436 33.7037C13.4719 33.7812 13.3626 33.9362 13.347 34.1222C13.2221 34.0292 13.066 34.0137 12.9099 34.0602C12.6446 34.1687 12.5353 34.5562 12.6758 34.9436C12.8163 35.3156 13.1441 35.5326 13.4251 35.4241C13.5812 35.3621 13.6748 35.2226 13.7061 35.0521C13.8309 35.1606 14.0183 35.1916 14.1744 35.1296C14.3148 35.0676 14.4241 34.9281 14.4553 34.7732C14.5958 34.8661 14.7675 34.8971 14.9236 34.8506C15.0641 34.7887 15.1734 34.6492 15.2046 34.4942C15.3451 34.5872 15.5168 34.6182 15.6729 34.5562C15.8134 34.4942 15.9227 34.3702 15.9695 34.2152C16.11 34.3082 16.2661 34.3237 16.4222 34.2617C16.4534 34.2462 16.469 34.2307 16.5002 34.2152C16.5783 34.4322 16.5627 34.6802 16.4534 34.8971H16.4378C16.2036 34.8816 16.0007 35.0676 15.9851 35.3001V35.3156C15.9851 35.5481 16.1724 35.7341 16.391 35.7341C16.469 35.7341 16.5315 35.7186 16.6095 35.6876H16.6407C16.9061 35.5016 17.0934 35.2226 17.1559 34.9126C17.2339 34.5717 17.2027 34.2152 17.0778 33.8742C18.2329 33.5487 19.4193 33.3782 20.6213 33.3782C21.8857 33.3472 23.1345 33.5797 24.3052 34.0292C24.6955 33.3937 25.3355 33.0682 25.8194 33.3317C26.2877 33.5952 26.4126 34.3547 26.0848 35.0676L26.7872 35.7651H31.0175V35.6721C31.0643 34.9901 29.5346 31.4873 22.3071 31.2858Z" fill="white"/>
<path id="Vector_28" d="M22.2452 37.3002H22.1203C20.4812 37.3002 18.4051 37.9822 17.5153 38.3077C17.4373 38.1217 17.4373 37.9202 17.4841 37.7187C17.687 37.7032 17.8275 37.5172 17.7963 37.3157C17.7807 37.1297 17.6246 37.0057 17.4529 36.9902C17.4373 36.9902 17.4217 36.9902 17.4061 36.9902C17.3905 36.9902 17.3592 36.9902 17.3436 36.9902C17.328 36.9902 17.3124 37.0057 17.2968 37.0212H17.2656L17.2187 37.0522L17.1875 37.0832C17.0314 37.2227 16.7036 37.6412 16.9378 38.4007C16.9222 38.4007 16.9065 38.4007 16.8909 38.4007C16.7661 38.4627 16.6568 38.5712 16.6256 38.7107C16.5163 38.6642 16.3758 38.6797 16.2665 38.7262C16.1417 38.7881 16.0324 38.8966 16.0012 39.0516C15.8919 38.9896 15.767 38.9896 15.6578 39.0206C15.5173 39.0826 15.4236 39.2066 15.3924 39.3461C15.2831 39.2841 15.1582 39.2686 15.0334 39.3151C14.8929 39.3771 14.7992 39.5011 14.7836 39.6561C14.6275 39.5321 14.3933 39.5631 14.2685 39.7336C14.2529 39.7646 14.2216 39.7956 14.2216 39.8266C14.1592 39.9971 14.1592 40.1831 14.2216 40.3536C14.3465 40.6791 14.6275 40.865 14.8616 40.7721C14.9865 40.7101 15.0802 40.6016 15.0958 40.4621C15.2051 40.5551 15.3612 40.5706 15.486 40.5241C15.6109 40.4621 15.689 40.3536 15.7202 40.2296C15.8295 40.3071 15.9856 40.3381 16.1104 40.2916C16.2353 40.2296 16.3134 40.1366 16.3446 40.0126C16.4539 40.0901 16.5943 40.1056 16.7192 40.0591C16.8285 39.9971 16.9222 39.9041 16.9534 39.7801C17.0626 39.8421 17.2031 39.8576 17.328 39.8111C17.3592 39.7956 17.3905 39.7801 17.4217 39.7491C17.4685 39.8886 17.4685 40.0436 17.4061 40.1986C17.2187 40.1521 17.0158 40.2761 16.969 40.4621C16.9222 40.6481 17.047 40.8495 17.2344 40.896C17.2812 40.9115 17.3436 40.9115 17.3905 40.896C17.4529 40.896 17.5153 40.8805 17.5622 40.8496H17.5934C17.8119 40.6946 17.968 40.4621 18.0149 40.1986C18.0773 39.9506 18.0617 39.6871 17.9836 39.4546C18.9671 39.1601 19.9817 39.0051 20.9964 39.0051C21.8237 38.9896 22.651 39.1291 23.4315 39.4081C23.8062 38.8191 24.4149 38.5402 24.8364 38.7726C25.2579 39.0206 25.3984 39.6716 25.1486 40.2916L25.8042 40.896H29.2072V40.8341C29.2696 40.2916 28.0521 37.4707 22.2452 37.3002Z" fill="white"/>
<path id="Vector_29" d="M22.12 42.5387H22.0576C20.9025 42.5542 19.7629 42.8022 18.7015 43.2362L18.6078 43.2672C18.5297 43.1122 18.5141 42.9417 18.5766 42.7712C18.7483 42.7557 18.8732 42.6007 18.8576 42.4147C18.8419 42.2597 18.7015 42.1357 18.5454 42.1357C18.5297 42.1357 18.5141 42.1357 18.4985 42.1357C18.4829 42.1357 18.4673 42.1357 18.4517 42.1357L18.4049 42.1512H18.3893L18.3424 42.1822L18.3112 42.2132C18.2175 42.3062 17.9053 42.6627 18.0927 43.3137C17.9834 43.3602 17.9053 43.4532 17.8897 43.5617C17.8117 43.5152 17.7024 43.5152 17.6244 43.5462C17.5151 43.5927 17.437 43.6857 17.4214 43.7942C17.3434 43.7477 17.2341 43.7322 17.1405 43.7632C17.0312 43.8097 16.9531 43.9027 16.9375 44.0267C16.8595 43.9802 16.7502 43.9647 16.6565 43.9957C16.5473 44.0422 16.4692 44.1506 16.4536 44.2591C16.3756 44.1971 16.2663 44.1971 16.1726 44.2281C16.0946 44.2591 16.0322 44.3211 16.0009 44.4141C15.9385 44.5536 15.9385 44.7086 16.0009 44.8481C16.0946 45.1116 16.3287 45.2666 16.5317 45.1891C16.6253 45.1426 16.7034 45.0651 16.719 44.9566C16.8126 45.0186 16.9219 45.0341 17.0312 45.0031C17.1248 44.9566 17.2029 44.8791 17.2185 44.7706C17.359 44.8791 17.5619 44.8481 17.6712 44.7086C17.6868 44.6776 17.7024 44.6466 17.718 44.6156C17.8117 44.6776 17.921 44.6931 18.0146 44.6466C18.1083 44.6001 18.1863 44.5226 18.2175 44.4296C18.3112 44.4761 18.4205 44.4916 18.5141 44.4606C18.5297 44.4606 18.561 44.4451 18.5766 44.4296C18.6234 44.5691 18.6078 44.7086 18.5454 44.8326C18.3736 44.8326 18.2332 44.9721 18.2332 45.1426C18.2332 45.3131 18.3736 45.4526 18.5454 45.4526C18.5922 45.4526 18.639 45.4371 18.6858 45.4061L18.7171 45.3906C18.92 45.2666 19.0449 45.0651 19.0917 44.8326C19.1385 44.6156 19.1385 44.3831 19.0605 44.1661C19.7942 43.9492 20.559 43.8407 21.3239 43.8252C21.8703 43.8097 22.401 43.8872 22.9161 44.0576C23.2283 43.5927 23.7123 43.3912 24.0713 43.5927C24.4303 43.7942 24.5396 44.3056 24.3523 44.8326L24.8362 45.2356H27.4118V45.1581C27.4118 44.6466 26.4752 42.6317 22.12 42.5387Z" fill="white"/>
<path id="Vector_30" d="M21.8388 27.7836C20.3714 27.7836 19.2163 27.5356 19.2163 27.2256C19.2163 26.8381 20.5432 26.6676 21.8388 26.6676C23.1032 26.6676 24.4613 26.8536 24.4613 27.2256C24.4769 27.5356 23.3217 27.7836 21.8388 27.7836ZM25.7569 22.9943C25.6788 22.9633 25.6008 22.9323 25.5227 22.9323C25.2886 22.9323 25.0857 23.0718 24.992 23.2733C24.9608 23.3508 24.9452 23.4283 24.9452 23.5058L24.633 23.6298L24.8359 24.2187C24.6017 24.6527 24.3052 25.0712 24.1334 25.3192C23.5715 25.1487 22.9783 25.0402 22.3851 24.9937C22.3539 24.7922 22.229 24.0637 22.151 23.3818L22.5881 22.9323L22.3539 22.6998C22.4944 22.4053 22.3539 22.0643 22.0729 21.9248C21.7763 21.7853 21.4329 21.9248 21.2924 22.2038C21.2612 22.2813 21.23 22.3743 21.2456 22.4518C21.2456 22.5293 21.2612 22.6068 21.2924 22.6843L21.0583 22.9323L21.4954 23.3818C21.4329 24.0482 21.308 24.7922 21.2612 25.0092C20.6836 25.0247 20.1061 25.1332 19.5441 25.3037C19.3724 25.0712 19.107 24.6372 18.8573 24.2032L19.0602 23.6143L18.748 23.4903C18.748 23.4128 18.7324 23.3353 18.7012 23.2578C18.6075 23.0563 18.4046 22.9168 18.1704 22.9168C18.0924 22.9168 18.0143 22.9478 17.9363 22.9788C17.6397 23.1338 17.5148 23.4748 17.6553 23.7693C17.6865 23.8467 17.7334 23.9087 17.7958 23.9552L17.6865 24.2807L18.2641 24.4977C18.4982 25.0247 18.8261 27.1791 18.8261 27.1946C18.9353 27.8301 20.2153 28.295 21.87 28.295C23.5247 28.295 24.7891 27.8456 24.8983 27.1946C24.9139 27.1171 24.9296 26.9931 24.9608 26.8381C25.07 26.1561 25.273 24.9007 25.4603 24.4822L26.0379 24.2652L25.913 23.9397C25.9754 23.8932 26.0223 23.8158 26.0535 23.7538C26.1627 23.4748 26.0379 23.1338 25.7569 22.9943Z" fill="white"/>
</g>
</g>
</g>
</svg>
